# WaveFront *.obj file (generated by Autodesk ATF)

mtllib Wire Shield.mtl

g Wire Shield

v 14.300000 0.898673 37.799985
v 17.300000 0.898673 34.799985
v 17.300000 0.098673 34.799985
v 14.300000 0.098673 37.799985
v 26.800000 0.898673 34.799985
v 26.800000 -3.341636 34.799985
v 26.000000 -3.341636 34.799985
v 26.000000 -2.901327 34.799985
v 23.000000 0.098673 34.799985
v 14.300000 0.898673 41.499985
v 26.800000 0.898673 41.499985
v 27.900000 -1.241636 42.299985
v 27.900000 -3.341636 42.299985
v 27.900000 -3.341636 41.499985
v 27.900000 -1.241636 41.499985
v 34.935086 -1.241636 42.299985
v 34.935086 -1.241636 41.499985
v 37.041487 3.484698 42.299985
v 37.041487 3.484698 41.499985
v 35.003096 3.358364 42.299985
v 35.003096 3.358364 41.499985
v 32.900000 3.358364 42.299985
v 32.900000 3.358364 41.499985
v 32.900000 3.758364 42.299985
v 32.900000 3.758364 41.499985
v 27.900000 3.758364 42.299985
v 27.900000 3.758364 41.499985
v 27.900000 5.600000 42.299985
v 27.900000 5.600000 41.499985
v 26.800000 -3.341636 41.499985
v 14.300000 5.600000 41.499985
v 26.000000 -2.901327 43.299985
v 23.000000 0.098673 43.299985
v 26.000000 -3.341636 43.299985
v 29.150000 5.600000 42.299985
v 14.300000 5.600000 43.299985
v 29.150000 5.600000 43.299985
v 29.150000 6.371954 42.299985
v 29.150000 6.371954 43.299985
v 35.000000 8.279753 42.299985
v 34.591167 7.947834 42.299985
v 34.161129 7.643889 42.299985
v 33.711798 7.369270 42.299985
v 33.245168 7.125196 42.299985
v 32.763315 6.912753 42.299985
v 32.268379 6.732883 42.299985
v 31.762560 6.586387 42.299985
v 31.248104 6.473915 42.299985
v 30.727298 6.395967 42.299985
v 30.202456 6.352889 42.299985
v 29.675910 6.344873 42.299985
v 29.675910 6.344873 43.299985
v 30.202456 6.352889 43.299985
v 30.727298 6.395967 43.299985
v 31.248104 6.473915 43.299985
v 31.762560 6.586387 43.299985
v 32.268379 6.732883 43.299985
v 32.763315 6.912753 43.299985
v 33.245168 7.125196 43.299985
v 33.711798 7.369270 43.299985
v 34.161129 7.643889 43.299985
v 34.591167 7.947834 43.299985
v 35.000000 8.279753 43.299985
v 35.000000 7.958364 42.299985
v 35.000000 7.958364 43.299985
v 38.000000 7.958364 42.299985
v 38.000000 7.958364 43.299985
v 38.000000 -0.341636 42.299985
v 38.000000 -0.341636 43.299985
v 35.000000 -3.341636 42.299985
v 35.000000 -3.341636 43.299985
v 14.300000 0.098673 43.299985
vt 0.212132 -0.136559 0.000000
vt -0.212132 -0.136559 0.000000
vt 0.212132 -0.216559 0.000000
vt -0.212132 -0.216559 0.000000
vt 0.325000 0.132015 0.000000
vt 0.325000 0.212015 0.000000
vt -0.245000 0.132015 0.000000
vt -0.625000 0.212015 0.000000
vt -0.545000 -0.167985 0.000000
vt -0.625000 -0.212015 0.000000
vt -0.545000 -0.212015 0.000000
vt 1.250000 0.750000 0.000000
vt 0.300000 0.750000 0.000000
vt 1.250000 0.080000 0.000000
vt 0.000000 0.450000 0.000000
vt 0.000000 0.080000 0.000000
vt -0.010000 0.000000 0.000000
vt 0.200000 0.000000 0.000000
vt -0.010000 0.080000 0.000000
vt 0.200000 0.080000 0.000000
vt 0.006491 0.000000 0.000000
vt 0.710000 0.000000 0.000000
vt 0.006491 0.080000 0.000000
vt 0.710000 0.080000 0.000000
vt 0.016501 0.000000 0.000000
vt 0.533949 0.000000 0.000000
vt 0.016501 0.080000 0.000000
vt 0.533949 0.080000 0.000000
vt -0.000310 -0.000000 0.000000
vt 0.203921 0.000000 0.000000
vt -0.000310 0.080000 0.000000
vt 0.203921 0.080000 0.000000
vt -0.010000 0.000000 0.000000
vt 0.200310 0.000000 0.000000
vt -0.010000 0.080000 0.000000
vt 0.200310 0.080000 0.000000
vt 0.010000 0.000000 0.000000
vt 0.050000 0.000000 0.000000
vt 0.010000 0.080000 0.000000
vt 0.050000 0.080000 0.000000
vt -0.010000 0.000000 0.000000
vt 0.490000 0.000000 0.000000
vt -0.010000 0.080000 0.000000
vt 0.490000 0.080000 0.000000
vt 0.015000 0.000000 0.000000
vt 0.199164 0.000000 0.000000
vt 0.015000 0.080000 0.000000
vt 0.199164 0.080000 0.000000
vt -0.215000 0.439582 0.000000
vt -0.215000 0.255418 0.000000
vt 1.145000 0.439582 0.000000
vt 1.145000 -0.030551 0.000000
vt -0.105000 -0.030551 0.000000
vt -0.715000 0.215418 0.000000
vt -0.918509 -0.244582 0.000000
vt -0.925310 0.215418 0.000000
vt -1.129149 0.228052 0.000000
vt -0.715000 0.255418 0.000000
vt -0.215000 -0.244582 0.000000
vt -0.105000 -0.454582 0.000000
vt -0.215000 -0.454582 0.000000
vt 0.000000 0.080000 0.000000
vt 0.424031 0.080000 0.000000
vt 0.000000 0.750000 0.000000
vt 0.424031 0.750000 0.000000
vt -0.750000 -0.212132 0.000000
vt 0.100000 -0.212132 0.000000
vt -0.750000 0.212132 0.000000
vt 0.100000 0.212132 0.000000
vt 0.300000 -0.750000 0.000000
vt 0.344031 -0.750000 0.000000
vt 0.300000 0.100000 0.000000
vt 0.344031 0.100000 0.000000
vt -0.015000 0.000000 0.000000
vt 0.110000 0.000000 0.000000
vt -0.015000 0.100000 0.000000
vt 1.470000 0.100000 0.000000
vt 1.470000 -0.080000 0.000000
vt 0.110000 -0.080000 0.000000
vt 0.016502 0.000000 0.000000
vt 0.093697 0.000000 0.000000
vt 0.016502 0.100000 0.000000
vt 0.093697 0.100000 0.000000
vt 0.100000 0.648706 0.000000
vt -0.000000 0.648706 0.000000
vt 0.100000 0.596036 0.000000
vt 0.000000 0.596036 0.000000
vt 0.100000 0.543365 0.000000
vt -0.000000 0.543365 0.000000
vt 0.100000 0.490695 0.000000
vt -0.000000 0.490695 0.000000
vt 0.100000 0.438025 0.000000
vt 0.000000 0.438025 0.000000
vt 0.100000 0.385354 0.000000
vt 0.000000 0.385354 0.000000
vt 0.100000 0.332684 0.000000
vt 0.000000 0.332684 0.000000
vt 0.100000 0.280013 0.000000
vt 0.000000 0.280013 0.000000
vt 0.100000 0.227343 0.000000
vt 0.000000 0.227343 0.000000
vt 0.100000 0.174672 0.000000
vt 0.000000 0.174672 0.000000
vt 0.100000 0.122002 0.000000
vt 0.000000 0.122002 0.000000
vt 0.100000 0.069332 0.000000
vt 0.000000 0.069332 0.000000
vt 0.100000 0.016661 0.000000
vt -0.000000 0.016661 0.000000
vt 0.000000 0.000000 0.000000
vt 0.032139 0.000000 0.000000
vt 0.000000 0.100000 0.000000
vt 0.032139 0.100000 0.000000
vt 0.000000 0.000000 0.000000
vt 0.300000 0.000000 0.000000
vt 0.000000 0.100000 0.000000
vt 0.300000 0.100000 0.000000
vt 0.000000 0.000000 0.000000
vt 0.830000 0.000000 0.000000
vt 0.000000 0.100000 0.000000
vt 0.830000 0.100000 0.000000
vt 0.000000 0.000000 0.000000
vt 0.424264 0.000000 0.000000
vt 0.000000 0.100000 0.000000
vt 0.424264 0.100000 0.000000
vt 0.900000 0.000000 0.000000
vt 0.900000 0.100000 0.000000
vt 0.190000 0.000000 0.000000
vt 0.000000 0.100000 0.000000
vt 0.080000 -0.080000 0.000000
vt 0.000000 -0.750000 0.000000
vt 0.080000 -0.750000 0.000000
vt 0.190000 -0.080000 0.000000
vt 0.000000 0.100000 0.000000
vt 0.000000 -0.450000 0.000000
vt 0.870000 0.100000 0.000000
vt 0.300000 -0.750000 0.000000
vt 0.870000 -0.750000 0.000000
vt 0.485133 -0.450000 0.000000
vt 0.565133 -0.450000 0.000000
vt 0.485133 -0.080000 0.000000
vt 0.565133 0.100000 0.000000
vt 0.015000 0.100000 0.000000
vt 0.015000 -0.080000 0.000000
vt 1.185000 0.247047 0.000000
vt 0.315000 0.247047 0.000000
vt 1.185000 -0.303086 0.000000
vt -0.300000 -0.303086 0.000000
vt -1.185000 0.291078 0.000000
vt -0.561256 -0.401724 0.000000
vt -0.611838 -0.416374 0.000000
vt -0.661332 -0.434361 0.000000
vt -1.185000 -0.538922 0.000000
vt -0.709517 -0.455605 0.000000
vt -0.756180 -0.480013 0.000000
vt -0.801113 -0.507475 0.000000
vt -0.885000 -0.538922 0.000000
vt -0.844117 -0.537869 0.000000
vt -0.885000 -0.571061 0.000000
vt 0.015000 0.547047 0.000000
vt -0.885000 0.591078 0.000000
vt 0.015000 0.591078 0.000000
vt -0.509810 -0.390477 0.000000
vt -0.457730 -0.382682 0.000000
vt -0.405246 -0.378374 0.000000
vt -0.352591 -0.377573 0.000000
vt -0.300000 -0.380281 0.000000
vt 0.175000 -0.303086 0.000000
vt 0.300000 -0.303086 0.000000
vt 0.175000 -0.118922 0.000000
vt 0.675000 -0.118922 0.000000
vt 0.457730 -0.382682 0.000000
vt 0.509810 -0.390477 0.000000
vt 0.300000 -0.380281 0.000000
vt 0.352591 -0.377573 0.000000
vt 0.405246 -0.378374 0.000000
vt 0.561256 -0.401724 0.000000
vt 0.611838 -0.416374 0.000000
vt 0.661332 -0.434361 0.000000
vt 0.709517 -0.455605 0.000000
vt 0.885310 -0.078922 0.000000
vt 0.675000 -0.078922 0.000000
vt 0.756180 -0.480013 0.000000
vt 0.801113 -0.507475 0.000000
vt 0.885000 -0.538922 0.000000
vt 0.844117 -0.537869 0.000000
vt 0.885000 -0.571061 0.000000
vt 1.089149 -0.091555 0.000000
vt 1.185000 -0.538922 0.000000
vt 1.185000 0.291078 0.000000
vt 0.878509 0.381078 0.000000
vt 0.885000 0.591078 0.000000
vt 0.175000 0.591078 0.000000
vt 0.175000 0.381078 0.000000
vn -0.070711 0.000000 -0.070711
vn -0.070711 0.000000 -0.070711
vn -0.070711 0.000000 -0.070711
vn -0.070711 0.000000 -0.070711
vn 0.000000 0.000000 -0.100000
vn 0.000000 0.000000 -0.100000
vn 0.000000 0.000000 -0.100000
vn 0.000000 0.000000 -0.100000
vn 0.000000 0.000000 -0.100000
vn 0.000000 0.000000 -0.100000
vn 0.000000 0.000000 -0.100000
vn -0.000000 0.100000 0.000000
vn -0.000000 0.100000 0.000000
vn -0.000000 0.100000 0.000000
vn -0.000000 0.100000 0.000000
vn -0.000000 0.100000 0.000000
vn 0.100000 0.000000 0.000000
vn 0.100000 0.000000 0.000000
vn 0.100000 0.000000 0.000000
vn 0.100000 0.000000 0.000000
vn 0.000000 -0.100000 0.000000
vn 0.000000 -0.100000 0.000000
vn 0.000000 -0.100000 0.000000
vn 0.000000 -0.100000 0.000000
vn 0.091339 -0.040708 0.000000
vn 0.091339 -0.040708 0.000000
vn 0.091339 -0.040708 0.000000
vn 0.091339 -0.040708 0.000000
vn -0.006186 0.099808 0.000000
vn -0.006186 0.099808 0.000000
vn -0.006186 0.099808 0.000000
vn -0.006186 0.099808 0.000000
vn 0.000000 0.100000 0.000000
vn 0.000000 0.100000 0.000000
vn 0.000000 0.100000 0.000000
vn 0.000000 0.100000 0.000000
vn 0.100000 0.000000 0.000000
vn 0.100000 0.000000 0.000000
vn 0.100000 0.000000 0.000000
vn 0.100000 0.000000 0.000000
vn 0.000000 0.100000 0.000000
vn 0.000000 0.100000 0.000000
vn 0.000000 0.100000 0.000000
vn 0.000000 0.100000 0.000000
vn 0.100000 -0.000000 0.000000
vn 0.100000 -0.000000 0.000000
vn 0.100000 -0.000000 0.000000
vn 0.100000 -0.000000 0.000000
vn 0.000000 0.000000 -0.100000
vn 0.000000 0.000000 -0.100000
vn 0.000000 0.000000 -0.100000
vn 0.000000 0.000000 -0.100000
vn 0.000000 0.000000 -0.100000
vn 0.000000 0.000000 -0.100000
vn 0.000000 0.000000 -0.100000
vn 0.000000 0.000000 -0.100000
vn 0.000000 0.000000 -0.100000
vn 0.000000 0.000000 -0.100000
vn 0.000000 0.000000 -0.100000
vn 0.000000 0.000000 -0.100000
vn 0.000000 0.000000 -0.100000
vn 0.100000 -0.000000 0.000000
vn 0.100000 -0.000000 0.000000
vn 0.100000 -0.000000 0.000000
vn 0.100000 -0.000000 0.000000
vn -0.070711 -0.070711 0.000000
vn -0.070711 -0.070711 0.000000
vn -0.070711 -0.070711 0.000000
vn -0.070711 -0.070711 0.000000
vn -0.100000 0.000000 0.000000
vn -0.100000 0.000000 0.000000
vn -0.100000 0.000000 0.000000
vn -0.100000 0.000000 0.000000
vn 0.000000 0.100000 0.000000
vn 0.000000 0.100000 0.000000
vn 0.000000 0.100000 0.000000
vn 0.000000 0.100000 0.000000
vn 0.000000 0.100000 0.000000
vn 0.000000 0.100000 0.000000
vn -0.100000 0.000000 0.000000
vn -0.100000 0.000000 0.000000
vn -0.100000 0.000000 0.000000
vn -0.100000 0.000000 0.000000
vn -0.065582 0.075491 0.000000
vn -0.065582 0.075491 0.000000
vn -0.060407 0.079693 0.000000
vn -0.060407 0.079693 0.000000
vn -0.054964 0.083540 0.000000
vn -0.054964 0.083540 0.000000
vn -0.049276 0.087017 0.000000
vn -0.049276 0.087017 0.000000
vn -0.043369 0.090106 0.000000
vn -0.043369 0.090106 0.000000
vn -0.037270 0.092795 0.000000
vn -0.037270 0.092795 0.000000
vn -0.031005 0.095072 0.000000
vn -0.031005 0.095072 0.000000
vn -0.024602 0.096926 0.000000
vn -0.024602 0.096926 0.000000
vn -0.018090 0.098350 0.000000
vn -0.018090 0.098350 0.000000
vn -0.011497 0.099337 0.000000
vn -0.011497 0.099337 0.000000
vn -0.004854 0.099882 0.000000
vn -0.004854 0.099882 0.000000
vn 0.001811 0.099984 0.000000
vn 0.001811 0.099984 0.000000
vn 0.008468 0.099641 0.000000
vn 0.008468 0.099641 0.000000
vn 0.100000 -0.000000 0.000000
vn 0.100000 -0.000000 0.000000
vn 0.100000 -0.000000 0.000000
vn 0.100000 -0.000000 0.000000
vn 0.000000 0.100000 0.000000
vn 0.000000 0.100000 0.000000
vn 0.000000 0.100000 0.000000
vn 0.000000 0.100000 0.000000
vn 0.100000 0.000000 0.000000
vn 0.100000 0.000000 0.000000
vn 0.100000 0.000000 0.000000
vn 0.100000 0.000000 0.000000
vn 0.070711 -0.070711 0.000000
vn 0.070711 -0.070711 0.000000
vn 0.070711 -0.070711 0.000000
vn 0.070711 -0.070711 0.000000
vn 0.000000 -0.100000 0.000000
vn 0.000000 -0.100000 0.000000
vn 0.000000 -0.100000 0.000000
vn 0.000000 -0.100000 0.000000
vn 0.000000 -0.100000 0.000000
vn 0.000000 -0.100000 0.000000
vn 0.000000 -0.100000 0.000000
vn 0.000000 -0.100000 0.000000
vn 0.000000 -0.100000 0.000000
vn 0.000000 -0.100000 0.000000
vn 0.000000 -0.100000 0.000000
vn 0.000000 -0.100000 0.000000
vn 0.000000 -0.100000 0.000000
vn -0.100000 0.000000 0.000000
vn -0.100000 0.000000 0.000000
vn -0.100000 0.000000 0.000000
vn -0.100000 0.000000 0.000000
vn -0.100000 0.000000 0.000000
vn -0.100000 0.000000 0.000000
vn 0.000000 0.000000 0.100000
vn 0.000000 0.000000 0.100000
vn 0.000000 0.000000 0.100000
vn 0.000000 0.000000 0.100000
vn 0.000000 0.000000 0.100000
vn 0.000000 0.000000 0.100000
vn 0.000000 0.000000 0.100000
vn 0.000000 0.000000 0.100000
vn 0.000000 0.000000 0.100000
vn 0.000000 0.000000 0.100000
vn 0.000000 0.000000 0.100000
vn 0.000000 0.000000 0.100000
vn 0.000000 0.000000 0.100000
vn 0.000000 0.000000 0.100000
vn 0.000000 0.000000 0.100000
vn 0.000000 0.000000 0.100000
vn 0.000000 0.000000 0.100000
vn 0.000000 0.000000 0.100000
vn 0.000000 0.000000 0.100000
vn 0.000000 0.000000 0.100000
vn 0.000000 0.000000 0.100000
vn 0.000000 0.000000 0.100000
vn 0.000000 0.000000 0.100000
vn 0.000000 0.000000 -0.100000
vn 0.000000 0.000000 -0.100000
vn 0.000000 0.000000 -0.100000
vn 0.000000 0.000000 -0.100000
vn 0.000000 0.000000 -0.100000
vn 0.000000 0.000000 -0.100000
vn 0.000000 0.000000 -0.100000
vn 0.000000 0.000000 -0.100000
vn 0.000000 0.000000 -0.100000
vn 0.000000 0.000000 -0.100000
vn 0.000000 0.000000 -0.100000
vn 0.000000 0.000000 -0.100000
vn 0.000000 0.000000 -0.100000
vn 0.000000 0.000000 -0.100000
vn 0.000000 0.000000 -0.100000
vn 0.000000 0.000000 -0.100000
vn 0.000000 0.000000 -0.100000
vn 0.000000 0.000000 -0.100000
vn 0.000000 0.000000 -0.100000
vn 0.000000 0.000000 -0.100000
vn 0.000000 0.000000 -0.100000
vn 0.000000 0.000000 -0.100000
vn 0.000000 0.000000 -0.100000
vn 0.000000 0.000000 -0.100000
vn 0.000000 0.000000 -0.100000
vn 0.000000 0.000000 -0.100000
vn 0.000000 0.000000 -0.100000
usemtl Steel_-_Satin
f 1/1/1 2/2/2 4/3/3
f 4/3/3 2/2/2 3/4/4
f 3/5/5 2/6/6 9/7/7
f 9/7/7 2/6/6 5/8/8
f 9/7/7 5/8/8 8/9/9
f 8/9/9 5/8/8 6/10/10
f 8/9/9 6/10/10 7/11/11
f 5/12/12 2/13/13 11/14/14
f 11/14/14 2/13/13 1/15/15
f 11/14/14 1/15/15 10/16/16
f 12/17/17 13/18/18 15/19/19
f 15/19/19 13/18/18 14/20/20
f 16/21/21 12/22/22 17/23/23
f 17/23/23 12/22/22 15/24/24
f 18/25/25 16/26/26 19/27/27
f 19/27/27 16/26/26 17/28/28
f 20/29/29 18/30/30 21/31/31
f 21/31/31 18/30/30 19/32/32
f 22/33/33 20/34/34 23/35/35
f 23/35/35 20/34/34 21/36/36
f 24/37/37 22/38/38 25/39/39
f 25/39/39 22/38/38 23/40/40
f 26/41/41 24/42/42 27/43/43
f 27/43/43 24/42/42 25/44/44
f 28/45/45 26/46/46 29/47/47
f 29/47/47 26/46/46 27/48/48
f 29/49/49 27/50/50 31/51/51
f 31/51/51 27/50/50 10/52/52
f 10/52/52 27/50/50 11/53/53
f 11/53/53 27/50/50 23/54/54
f 11/53/53 23/54/54 17/55/55
f 17/55/55 23/54/54 21/56/56
f 17/55/55 21/56/56 19/57/57
f 27/50/50 25/58/58 23/54/54
f 17/55/55 15/59/59 11/53/53
f 11/53/53 15/59/59 30/60/60
f 30/60/60 15/59/59 14/61/61
f 11/62/62 30/63/63 5/64/64
f 5/64/64 30/63/63 6/65/65
f 8/66/66 32/67/67 9/68/68
f 9/68/68 32/67/67 33/69/69
f 8/70/70 7/71/71 32/72/72
f 32/72/72 7/71/71 34/73/73
f 35/74/74 28/75/75 37/76/76
f 37/76/76 28/75/75 36/77/77
f 36/77/77 28/75/75 31/78/78
f 31/78/78 28/75/75 29/79/79
f 38/80/80 35/81/81 39/82/82
f 39/82/82 35/81/81 37/83/83
f 63/84/84 40/85/85 62/86/86
f 62/86/86 40/85/85 41/87/87
f 62/86/86 41/87/87 61/88/88
f 61/88/88 41/87/87 42/89/89
f 61/88/88 42/89/89 60/90/90
f 60/90/90 42/89/89 43/91/91
f 60/90/90 43/91/91 59/92/92
f 59/92/92 43/91/91 44/93/93
f 59/92/92 44/93/93 58/94/94
f 58/94/94 44/93/93 45/95/95
f 58/94/94 45/95/95 57/96/96
f 57/96/96 45/95/95 46/97/97
f 57/96/96 46/97/97 56/98/98
f 56/98/98 46/97/97 47/99/99
f 56/98/98 47/99/99 55/100/100
f 55/100/100 47/99/99 48/101/101
f 55/100/100 48/101/101 54/102/102
f 54/102/102 48/101/101 49/103/103
f 54/102/102 49/103/103 53/104/104
f 53/104/104 49/103/103 50/105/105
f 53/104/104 50/105/105 52/106/106
f 52/106/106 50/105/105 51/107/107
f 52/106/106 51/107/107 39/108/108
f 39/108/108 51/107/107 38/109/109
f 64/110/110 40/111/111 65/112/112
f 65/112/112 40/111/111 63/113/113
f 66/114/114 64/115/115 67/116/116
f 67/116/116 64/115/115 65/117/117
f 68/118/118 66/119/119 69/120/120
f 69/120/120 66/119/119 67/121/121
f 70/122/122 68/123/123 71/124/124
f 71/124/124 68/123/123 69/125/125
f 70/126/126 71/127/127 13/128/128
f 13/128/128 71/127/127 34/129/129
f 13/128/128 34/129/129 30/130/130
f 30/130/130 34/129/129 7/131/131
f 30/130/130 7/131/131 6/132/132
f 30/130/130 14/133/133 13/128/128
f 72/134/134 4/135/135 33/136/136
f 33/136/136 4/135/135 3/137/137
f 33/136/136 3/137/137 9/138/138
f 1/139/139 4/140/140 10/141/141
f 10/141/141 4/140/140 72/142/142
f 10/141/141 72/142/142 36/143/143
f 36/143/143 31/144/144 10/141/141
f 72/145/145 33/146/146 36/147/147
f 36/147/147 33/146/146 37/148/148
f 37/148/148 33/146/146 69/149/149
f 37/148/148 69/149/149 56/150/150
f 56/150/150 69/149/149 57/151/151
f 57/151/151 69/149/149 58/152/152
f 58/152/152 69/149/149 67/153/153
f 58/152/152 67/153/153 59/154/154
f 59/154/154 67/153/153 60/155/155
f 60/155/155 67/153/153 61/156/156
f 61/156/156 67/153/153 65/157/157
f 61/156/156 65/157/157 62/158/158
f 62/158/158 65/157/157 63/159/159
f 33/146/146 32/160/160 69/149/149
f 69/149/149 32/160/160 71/161/161
f 71/161/161 32/160/160 34/162/162
f 56/150/150 55/163/163 37/148/148
f 37/148/148 55/163/163 54/164/164
f 37/148/148 54/164/164 53/165/165
f 53/165/165 52/166/166 37/148/148
f 37/148/148 52/166/166 39/167/167
f 28/168/168 35/169/169 26/170/170
f 26/170/170 35/169/169 24/171/171
f 24/171/171 35/169/169 49/172/172
f 24/171/171 49/172/172 48/173/173
f 38/174/174 51/175/175 35/169/169
f 35/169/169 51/175/175 50/176/176
f 35/169/169 50/176/176 49/172/172
f 48/173/173 47/177/177 24/171/171
f 24/171/171 47/177/177 46/178/178
f 24/171/171 46/178/178 45/179/179
f 45/179/179 44/180/180 24/171/171
f 24/171/171 44/180/180 20/181/181
f 24/171/171 20/181/181 22/182/182
f 44/180/180 43/183/183 20/181/181
f 20/181/181 43/183/183 42/184/184
f 20/181/181 42/184/184 64/185/185
f 64/185/185 42/184/184 41/186/186
f 64/185/185 41/186/186 40/187/187
f 20/181/181 64/185/185 18/188/188
f 18/188/188 64/185/185 66/189/189
f 18/188/188 66/189/189 68/190/190
f 18/188/188 68/190/190 16/191/191
f 16/191/191 68/190/190 70/192/192
f 16/191/191 70/192/192 13/193/193
f 13/193/193 12/194/194 16/191/191
# 72 vertices
# 194 texture params
# 194 normals
# 140 facets

# 1 groups
